<svg width="12" height="12" viewBox="0 0 12 12" fill="none" xmlns="http://www.w3.org/2000/svg">
<path d="M9.76892 0.0019573C10.1706 0.0019796 10.5558 0.186489 10.8399 0.514652C11.1238 0.842775 11.2833 1.28793 11.2833 1.75196C11.2833 2.21595 11.1237 2.6611 10.8399 2.98926C10.5558 3.31743 10.1706 3.50193 9.76892 3.50196C9.68834 3.50113 9.60766 3.49336 9.52828 3.47754L8.27614 6.42676C8.37087 6.56855 8.43468 6.73497 8.46274 6.91114C8.49077 7.08736 8.48239 7.26893 8.4375 7.44043C8.39259 7.61196 8.31282 7.76874 8.20493 7.89746C8.09705 8.02614 7.96419 8.12333 7.81731 8.18067C7.67041 8.238 7.51359 8.25428 7.36027 8.22754C7.20693 8.20078 7.06142 8.1313 6.93569 8.02637C6.81004 7.92147 6.70749 7.78376 6.63732 7.62403C6.56718 7.46435 6.53098 7.28746 6.53185 7.1084L4.18179 5.76172C4.01389 5.9111 3.80776 5.99243 3.59585 5.99317C3.58775 5.99317 3.58049 5.99032 3.57242 5.99024L2.47897 8.37989C2.75503 8.64179 2.94185 9.0083 3.00721 9.41407C3.0725 9.82005 3.01223 10.2404 2.83594 10.5996C2.65964 10.9587 2.37856 11.2343 2.04357 11.3779C1.70864 11.5214 1.34043 11.5241 1.00421 11.3848C0.667877 11.2453 0.385154 10.9722 0.205528 10.6152C0.0260867 10.2585 -0.0388272 9.84011 0.0225351 9.4336C0.0840222 9.02683 0.268051 8.65804 0.541766 8.39258C0.81549 8.12713 1.16158 7.98183 1.51893 7.98243C1.57193 7.98248 1.62489 7.9856 1.67758 7.99219L2.80709 5.52246C2.717 5.37856 2.65771 5.21163 2.63402 5.03614C2.61039 4.86078 2.62315 4.68135 2.67097 4.5127C2.71882 4.34406 2.80009 4.19061 2.90896 4.06543C3.0179 3.94021 3.15121 3.8464 3.29748 3.792C3.44375 3.73761 3.59921 3.72464 3.7509 3.75293C3.90264 3.78126 4.04692 3.85021 4.17097 3.95508C4.29487 4.05986 4.39557 4.19714 4.46484 4.35547C4.53414 4.51399 4.56997 4.68959 4.56941 4.86719L6.92037 6.21387C7.08704 6.06582 7.29068 5.98424 7.5009 5.98243L8.7494 3.042C8.52315 2.80476 8.36453 2.49394 8.29417 2.15039C8.22383 1.80677 8.24515 1.44648 8.35547 1.11719C8.46585 0.787839 8.66022 0.504963 8.91256 0.305668C9.16488 0.106401 9.46329 -0.000770961 9.76892 4.17524e-06V0.0019573Z" fill="#4ECCA3"/>
</svg>
